<?xml version="1.0" encoding="UTF-8" standalone="no"?>
<!-- Created with Inkscape (http://www.inkscape.org/) -->

<svg
   width="533mm"
   height="150mm"
   viewBox="0 0 533 150"
   version="1.1"
   id="svg1"
   xml:space="preserve"
   sodipodi:docname="logo-light.svg"
   inkscape:version="1.3.2 (1:1.3.2+202311252150+091e20ef0f)"
   xmlns:inkscape="http://www.inkscape.org/namespaces/inkscape"
   xmlns:sodipodi="http://sodipodi.sourceforge.net/DTD/sodipodi-0.dtd"
   xmlns="http://www.w3.org/2000/svg"
   xmlns:svg="http://www.w3.org/2000/svg"><sodipodi:namedview
     id="namedview1"
     pagecolor="#ffffff"
     bordercolor="#000000"
     borderopacity="0.25"
     inkscape:showpageshadow="2"
     inkscape:pageopacity="0.0"
     inkscape:pagecheckerboard="0"
     inkscape:deskcolor="#d1d1d1"
     inkscape:document-units="mm"
     showguides="true"
     inkscape:zoom="0.5"
     inkscape:cx="1045"
     inkscape:cy="366"
     inkscape:window-width="1850"
     inkscape:window-height="1016"
     inkscape:window-x="1990"
     inkscape:window-y="27"
     inkscape:window-maximized="1"
     inkscape:current-layer="text7" /><defs
     id="defs1"><rect
       x="-1327.6583"
       y="-155.82814"
       width="1327.6583"
       height="722.75726"
       id="rect7" /></defs><g
     inkscape:label="Layer 1"
     inkscape:groupmode="layer"
     id="layer1"><path
       id="path1"
       style="fill:#fafaf9;fill-opacity:1;stroke:none;stroke-width:0.291198"
       d="m 364.47144,81.200404 a 33.74921,33.74921 0 0 0 -33.74936,33.748836 33.74921,33.74921 0 0 0 33.74936,33.74937 33.74921,33.74921 0 0 0 33.74885,-33.74937 33.74921,33.74921 0 0 0 -33.74885,-33.748836 z m 0,14.563452 a 19.185526,19.185526 0 0 1 19.18539,19.185384 19.185526,19.185526 0 0 1 -19.18539,19.18591 19.185526,19.185526 0 0 1 -19.18591,-19.18591 19.185526,19.185526 0 0 1 19.18591,-19.185384 z" /><path
       style="fill:none;fill-opacity:1;stroke:#fafaf9;stroke-width:14.869;stroke-linecap:butt;stroke-linejoin:miter;stroke-dasharray:none;stroke-opacity:1;paint-order:normal"
       d="m 404.55635,86.325689 c 25.55654,44.265231 25.55654,44.265231 25.55654,44.265231 l 25.55653,-44.265231"
       id="path5" /><circle
       style="fill:none;fill-opacity:1;stroke:#fafaf9;stroke-width:7.938;stroke-linecap:round;stroke-linejoin:round;stroke-dasharray:none;stroke-opacity:1;paint-order:stroke fill markers"
       id="path6"
       cx="465.99664"
       cy="19.855211"
       r="11.418941" /><path
       style="fill:none;fill-opacity:1;stroke:#fafaf9;stroke-width:14.869;stroke-linecap:butt;stroke-linejoin:miter;stroke-dasharray:none;stroke-opacity:1;paint-order:normal"
       d="m 449.61543,44.21184 20.26546,29.010962"
       id="path7"
       sodipodi:nodetypes="cc" /><g
       id="text7"
       style="font-size:400px;letter-spacing:34.74px;white-space:pre;fill:#fafaf9;stroke:#fafaf9;stroke-width:31.7480319;stroke-miterlimit:3.7;stroke-opacity:1;stroke-dasharray:none;fill-opacity:1"
       transform="matrix(0.26458333,0,0,0.26458333,351.27623,88.890438)"
       aria-label="ROWER&#10;"><path
         style="font-family:NATS;-inkscape-font-specification:NATS;stroke:#fafaf9;stroke-opacity:1;stroke-width:31.7480319;stroke-dasharray:none;fill:#fafaf9;fill-opacity:1"
         d="M -1306.6273,210.1838 V -15.383206 h 58.1444 q 20.6185,0 33.8144,2.061855 13.1959,2.061856 21.4433,6.1855675 18.9691,8.6597938 29.6907,26.3917525 11.134,17.319588 11.134,38.762887 0,27.216494 -17.3196,47.010304 -18.969,21.85568 -47.835,21.85568 l 63.5051,83.29896 h -31.7525 l -77.9382,-103.91752 q 40,0 50.3093,-2.8866 16.9072,-4.536082 26.3918,-17.731958 9.4845,-13.195877 9.4845,-28.453609 0,-12.783505 -6.5979,-24.329897 -6.1856,-11.958762 -16.0825,-16.907216 -9.8969,-4.948454 -20.2062,-6.5979382 -9.8969,-2.0618556 -23.5052,-2.0618556 h -37.5257 V 210.1838 Z M -1099.104,98.843598 q 0,-51.546392 37.1134,-85.773196 35.0515,-32.989691 82.47419,-32.989691 48.24742,0 83.71134,34.226804 35.87629,33.814433 35.87629,82.886598 0,49.484537 -35.87629,83.298967 -35.46392,33.40206 -83.71134,33.40206 -48.65979,0 -84.12369,-33.40206 -35.4639,-33.81443 -35.4639,-81.649482 z m 25.1546,0 q 0,37.113402 27.6289,65.154642 28.0412,27.62886 66.80409,27.62886 38.35051,0 65.97938,-27.62886 28.04124,-27.62887 28.04124,-65.979384 0,-38.762887 -28.04124,-66.391753 -27.62887,-28.0412371 -65.97938,-28.0412371 -38.35049,0 -66.39179,27.6288661 -28.0412,27.216495 -28.0412,67.628866 z"
         id="path4" /><path
         style="font-family:NATS;-inkscape-font-specification:NATS;fill:#fafaf9;stroke-linecap:square;stroke:#fafaf9;stroke-opacity:1;stroke-width:31.7480319;stroke-dasharray:none;fill-opacity:1"
         d="M -750.13757,210.1838 -814.0551,-15.383206 h 25.97938 l 53.19588,190.515466 52.7835,-190.515466 h 23.09279 l 52.37113,190.103096 54.02062,-190.103096 h 25.56701 L -591.78706,210.1838 h -30.51546 L -670.13757,31.627103 -718.385,210.1838 Z"
         id="path9" /><path
         style="font-family:NATS;-inkscape-font-specification:NATS;stroke:#fafaf9;stroke-opacity:1;stroke-width:31.7480319;stroke-dasharray:none;fill:#fafaf9;fill-opacity:1"
         d="M -472.92348,210.1838 V -15.383206 h 124.94845 V 7.2972062 h -99.79381 V 84.822979 h 96.49485 v 23.092781 h -96.49485 v 79.58763 h 99.79381 v 22.68041 z m 195.15265,0 V -15.383206 h 58.14433 q 20.61856,0 33.81443,2.061855 13.19588,2.061856 21.4433,6.1855675 18.96907,8.6597938 29.69072,26.3917525 11.13402,17.319588 11.13402,38.762887 0,27.216494 -17.31958,47.010304 -18.96908,21.85568 -47.83506,21.85568 l 63.50516,83.29896 h -31.75258 l -77.93814,-103.91752 q 40,0 50.30928,-2.8866 16.90721,-4.536082 26.39175,-17.731958 9.48453,-13.195877 9.48453,-28.453609 0,-12.783505 -6.59793,-24.329897 -6.18557,-11.958762 -16.08248,-16.907216 -9.8969,-4.948454 -20.20618,-6.5979382 -9.89691,-2.0618556 -23.50516,-2.0618556 h -37.52577 V 210.1838 Z"
         id="path10" /></g><path
       style="fill:none;fill-opacity:1;stroke:#fafaf9;stroke-width:8.39999;stroke-linecap:butt;stroke-linejoin:miter;stroke-dasharray:none;stroke-opacity:1;paint-order:normal"
       d="m 4.7860255,76.984418 30.4832425,-42.821589 7.25789,11.975517 28.30575,-39.3096899 17.05616,16.8102049 5.4433,-7.620776 21.773672,23.588159 9.43528,-3.266045 70.93289,21.773676 147.16684,13.427104"
       id="path8"
       sodipodi:nodetypes="cccccccccc" /><path
       id="path2"
       style="fill:#fafaf9;fill-opacity:1.0;stroke:none;stroke-width:0.291;stroke-dasharray:none"
       d="m 495.30464,81.199217 a 33.74921,33.74921 0 0 0 -33.74936,33.748843 33.74921,33.74921 0 0 0 33.74936,33.74937 33.74921,33.74921 0 0 0 33.74885,-33.74937 33.74921,33.74921 0 0 0 -33.74885,-33.748843 z m 0,14.563455 a 19.185526,19.185526 0 0 1 19.18539,19.185388 19.185526,19.185526 0 0 1 -19.18539,19.18591 19.185526,19.185526 0 0 1 -19.18591,-19.18591 19.185526,19.185526 0 0 1 19.18591,-19.185388 z" /><path
       style="fill:none;fill-opacity:1;stroke:#fafaf9;stroke-width:14.869;stroke-linecap:butt;stroke-linejoin:miter;stroke-dasharray:none;stroke-opacity:1;paint-order:normal"
       d="M 450.11972,31.631593 394.59681,70.34111"
       id="path7-5"
       sodipodi:nodetypes="cc" /></g></svg>
